<mxfile host="app.diagrams.net" agent="Mozilla/5.0 (X11; Linux x86_64) AppleWebKit/537.36 (KHTML, like Gecko) Chrome/131.0.0.0 Safari/537.36" version="26.0.11">
  <diagram id="C5RBs43oDa-KdzZeNtuy" name="Workflow">
    <mxGraphModel dx="1195" dy="608" grid="1" gridSize="10" guides="1" tooltips="1" connect="1" arrows="1" fold="1" page="1" pageScale="1" pageWidth="827" pageHeight="1169" math="0" shadow="0">
      <root>
        <mxCell id="WIyWlLk6GJQsqaUBKTNV-0" />
        <mxCell id="WIyWlLk6GJQsqaUBKTNV-1" parent="WIyWlLk6GJQsqaUBKTNV-0" />
        <mxCell id="szlw7d-lqJ2OuoEJHSK5-0" value="Actor" style="shape=umlActor;verticalLabelPosition=bottom;verticalAlign=top;html=1;outlineConnect=0;" vertex="1" parent="WIyWlLk6GJQsqaUBKTNV-1">
          <mxGeometry x="60" y="170" width="30" height="60" as="geometry" />
        </mxCell>
        <mxCell id="szlw7d-lqJ2OuoEJHSK5-1" value="" style="endArrow=classic;html=1;rounded=0;" edge="1" parent="WIyWlLk6GJQsqaUBKTNV-1">
          <mxGeometry width="50" height="50" relative="1" as="geometry">
            <mxPoint x="100" y="210" as="sourcePoint" />
            <mxPoint x="230" y="210" as="targetPoint" />
          </mxGeometry>
        </mxCell>
        <mxCell id="szlw7d-lqJ2OuoEJHSK5-3" value="Uploads form" style="edgeLabel;html=1;align=center;verticalAlign=middle;resizable=0;points=[];" vertex="1" connectable="0" parent="szlw7d-lqJ2OuoEJHSK5-1">
          <mxGeometry x="-0.2605" y="-2" relative="1" as="geometry">
            <mxPoint x="12" y="-2" as="offset" />
          </mxGeometry>
        </mxCell>
        <mxCell id="szlw7d-lqJ2OuoEJHSK5-4" value="Guard Agent" style="rounded=1;whiteSpace=wrap;html=1;" vertex="1" parent="WIyWlLk6GJQsqaUBKTNV-1">
          <mxGeometry x="230" y="190" width="120" height="50" as="geometry" />
        </mxCell>
        <mxCell id="szlw7d-lqJ2OuoEJHSK5-9" style="edgeStyle=orthogonalEdgeStyle;rounded=0;orthogonalLoop=1;jettySize=auto;html=1;entryX=0.5;entryY=0;entryDx=0;entryDy=0;" edge="1" parent="WIyWlLk6GJQsqaUBKTNV-1" source="szlw7d-lqJ2OuoEJHSK5-5" target="szlw7d-lqJ2OuoEJHSK5-7">
          <mxGeometry relative="1" as="geometry" />
        </mxCell>
        <mxCell id="szlw7d-lqJ2OuoEJHSK5-10" value="No" style="edgeLabel;html=1;align=center;verticalAlign=middle;resizable=0;points=[];" vertex="1" connectable="0" parent="szlw7d-lqJ2OuoEJHSK5-9">
          <mxGeometry x="-0.0566" y="2" relative="1" as="geometry">
            <mxPoint as="offset" />
          </mxGeometry>
        </mxCell>
        <mxCell id="szlw7d-lqJ2OuoEJHSK5-11" style="edgeStyle=orthogonalEdgeStyle;rounded=0;orthogonalLoop=1;jettySize=auto;html=1;entryX=0;entryY=0.5;entryDx=0;entryDy=0;" edge="1" parent="WIyWlLk6GJQsqaUBKTNV-1" source="szlw7d-lqJ2OuoEJHSK5-5" target="szlw7d-lqJ2OuoEJHSK5-13">
          <mxGeometry relative="1" as="geometry">
            <mxPoint x="740" y="221" as="targetPoint" />
          </mxGeometry>
        </mxCell>
        <mxCell id="szlw7d-lqJ2OuoEJHSK5-12" value="YES" style="edgeLabel;html=1;align=center;verticalAlign=middle;resizable=0;points=[];" vertex="1" connectable="0" parent="szlw7d-lqJ2OuoEJHSK5-11">
          <mxGeometry x="-0.0498" y="2" relative="1" as="geometry">
            <mxPoint as="offset" />
          </mxGeometry>
        </mxCell>
        <mxCell id="szlw7d-lqJ2OuoEJHSK5-5" value="is the form valid/all the content is legal" style="rhombus;whiteSpace=wrap;html=1;shadow=0;fontFamily=Helvetica;fontSize=12;align=center;strokeWidth=1;spacing=6;spacingTop=-4;" vertex="1" parent="WIyWlLk6GJQsqaUBKTNV-1">
          <mxGeometry x="430" y="150" width="170" height="142.5" as="geometry" />
        </mxCell>
        <mxCell id="szlw7d-lqJ2OuoEJHSK5-6" value="" style="endArrow=classic;html=1;rounded=0;entryX=0;entryY=0.5;entryDx=0;entryDy=0;exitX=1.014;exitY=0.657;exitDx=0;exitDy=0;exitPerimeter=0;" edge="1" parent="WIyWlLk6GJQsqaUBKTNV-1" source="szlw7d-lqJ2OuoEJHSK5-4" target="szlw7d-lqJ2OuoEJHSK5-5">
          <mxGeometry width="50" height="50" relative="1" as="geometry">
            <mxPoint x="330" y="310" as="sourcePoint" />
            <mxPoint x="380" y="260" as="targetPoint" />
          </mxGeometry>
        </mxCell>
        <mxCell id="szlw7d-lqJ2OuoEJHSK5-8" style="edgeStyle=orthogonalEdgeStyle;rounded=0;orthogonalLoop=1;jettySize=auto;html=1;" edge="1" parent="WIyWlLk6GJQsqaUBKTNV-1" source="szlw7d-lqJ2OuoEJHSK5-7">
          <mxGeometry relative="1" as="geometry">
            <mxPoint x="70" y="260" as="targetPoint" />
          </mxGeometry>
        </mxCell>
        <mxCell id="szlw7d-lqJ2OuoEJHSK5-7" value="Response" style="rounded=1;whiteSpace=wrap;html=1;" vertex="1" parent="WIyWlLk6GJQsqaUBKTNV-1">
          <mxGeometry x="560" y="400" width="120" height="40" as="geometry" />
        </mxCell>
        <mxCell id="szlw7d-lqJ2OuoEJHSK5-17" style="edgeStyle=orthogonalEdgeStyle;rounded=0;orthogonalLoop=1;jettySize=auto;html=1;entryX=0;entryY=0.5;entryDx=0;entryDy=0;" edge="1" parent="WIyWlLk6GJQsqaUBKTNV-1" source="szlw7d-lqJ2OuoEJHSK5-13" target="szlw7d-lqJ2OuoEJHSK5-15">
          <mxGeometry relative="1" as="geometry" />
        </mxCell>
        <mxCell id="szlw7d-lqJ2OuoEJHSK5-19" style="edgeStyle=orthogonalEdgeStyle;rounded=0;orthogonalLoop=1;jettySize=auto;html=1;exitX=1;exitY=0.25;exitDx=0;exitDy=0;entryX=0;entryY=0.5;entryDx=0;entryDy=0;" edge="1" parent="WIyWlLk6GJQsqaUBKTNV-1" source="szlw7d-lqJ2OuoEJHSK5-13" target="szlw7d-lqJ2OuoEJHSK5-14">
          <mxGeometry relative="1" as="geometry" />
        </mxCell>
        <mxCell id="szlw7d-lqJ2OuoEJHSK5-13" value="Classifier Agent" style="rounded=1;whiteSpace=wrap;html=1;" vertex="1" parent="WIyWlLk6GJQsqaUBKTNV-1">
          <mxGeometry x="730" y="195" width="120" height="50" as="geometry" />
        </mxCell>
        <mxCell id="szlw7d-lqJ2OuoEJHSK5-21" style="edgeStyle=orthogonalEdgeStyle;rounded=0;orthogonalLoop=1;jettySize=auto;html=1;" edge="1" parent="WIyWlLk6GJQsqaUBKTNV-1" source="szlw7d-lqJ2OuoEJHSK5-14" target="szlw7d-lqJ2OuoEJHSK5-20">
          <mxGeometry relative="1" as="geometry" />
        </mxCell>
        <mxCell id="szlw7d-lqJ2OuoEJHSK5-14" value="BankLoanFormAgent" style="rounded=1;whiteSpace=wrap;html=1;" vertex="1" parent="WIyWlLk6GJQsqaUBKTNV-1">
          <mxGeometry x="920" y="140" width="150" height="40" as="geometry" />
        </mxCell>
        <mxCell id="szlw7d-lqJ2OuoEJHSK5-22" style="edgeStyle=orthogonalEdgeStyle;rounded=0;orthogonalLoop=1;jettySize=auto;html=1;exitX=1;exitY=0.5;exitDx=0;exitDy=0;entryX=0;entryY=0.5;entryDx=0;entryDy=0;" edge="1" parent="WIyWlLk6GJQsqaUBKTNV-1" source="szlw7d-lqJ2OuoEJHSK5-15" target="szlw7d-lqJ2OuoEJHSK5-20">
          <mxGeometry relative="1" as="geometry" />
        </mxCell>
        <mxCell id="szlw7d-lqJ2OuoEJHSK5-15" value="InsuranceFormAgent" style="rounded=1;whiteSpace=wrap;html=1;" vertex="1" parent="WIyWlLk6GJQsqaUBKTNV-1">
          <mxGeometry x="920" y="200" width="150" height="40" as="geometry" />
        </mxCell>
        <mxCell id="szlw7d-lqJ2OuoEJHSK5-23" style="edgeStyle=orthogonalEdgeStyle;rounded=0;orthogonalLoop=1;jettySize=auto;html=1;entryX=0.5;entryY=1;entryDx=0;entryDy=0;" edge="1" parent="WIyWlLk6GJQsqaUBKTNV-1" source="szlw7d-lqJ2OuoEJHSK5-16" target="szlw7d-lqJ2OuoEJHSK5-20">
          <mxGeometry relative="1" as="geometry" />
        </mxCell>
        <mxCell id="szlw7d-lqJ2OuoEJHSK5-16" value="GovernmentFormAgent" style="rounded=1;whiteSpace=wrap;html=1;" vertex="1" parent="WIyWlLk6GJQsqaUBKTNV-1">
          <mxGeometry x="920" y="260" width="150" height="40" as="geometry" />
        </mxCell>
        <mxCell id="szlw7d-lqJ2OuoEJHSK5-18" value="" style="endArrow=classic;html=1;rounded=0;entryX=0;entryY=0.5;entryDx=0;entryDy=0;exitX=1.007;exitY=0.881;exitDx=0;exitDy=0;exitPerimeter=0;" edge="1" parent="WIyWlLk6GJQsqaUBKTNV-1" source="szlw7d-lqJ2OuoEJHSK5-13" target="szlw7d-lqJ2OuoEJHSK5-16">
          <mxGeometry width="50" height="50" relative="1" as="geometry">
            <mxPoint x="770" y="360" as="sourcePoint" />
            <mxPoint x="820" y="310" as="targetPoint" />
          </mxGeometry>
        </mxCell>
        <mxCell id="szlw7d-lqJ2OuoEJHSK5-20" value="VectorDB-Collection" style="rounded=1;whiteSpace=wrap;html=1;" vertex="1" parent="WIyWlLk6GJQsqaUBKTNV-1">
          <mxGeometry x="1150" y="200" width="120" height="40" as="geometry" />
        </mxCell>
        <mxCell id="szlw7d-lqJ2OuoEJHSK5-24" value="" style="rounded=1;whiteSpace=wrap;html=1;opacity=90;fillColor=none;" vertex="1" parent="WIyWlLk6GJQsqaUBKTNV-1">
          <mxGeometry x="897" y="116.25" width="190" height="210" as="geometry" />
        </mxCell>
        <mxCell id="szlw7d-lqJ2OuoEJHSK5-27" value="" style="endArrow=classic;html=1;rounded=0;entryX=1;entryY=0.5;entryDx=0;entryDy=0;exitX=0.536;exitY=1.01;exitDx=0;exitDy=0;exitPerimeter=0;" edge="1" parent="WIyWlLk6GJQsqaUBKTNV-1" source="szlw7d-lqJ2OuoEJHSK5-24" target="szlw7d-lqJ2OuoEJHSK5-7">
          <mxGeometry width="50" height="50" relative="1" as="geometry">
            <mxPoint x="760" y="480" as="sourcePoint" />
            <mxPoint x="810" y="430" as="targetPoint" />
            <Array as="points">
              <mxPoint x="998" y="420" />
            </Array>
          </mxGeometry>
        </mxCell>
      </root>
    </mxGraphModel>
  </diagram>
</mxfile>
